<?xml version="1.0" encoding="UTF-8"?>
<svg width="596px" height="227px" viewBox="0 0 596 227" version="1.1" xmlns="http://www.w3.org/2000/svg" xmlns:xlink="http://www.w3.org/1999/xlink">
    <!-- Generator: Sketch 46.2 (44496) - http://www.bohemiancoding.com/sketch -->
    <title>Group</title>
    <desc>Created with Sketch.</desc>
    <defs></defs>
    <g id="Page-1" stroke="none" stroke-width="1" fill="none" fill-rule="evenodd">
        <g id="ember-all" transform="translate(0.000000, -21.000000)" fill="#D14735">
            <g id="Group" transform="translate(0.000000, 21.000000)">
                <path d="M411.383,170.13 C411.383,170.13 408.633,160.38 418.883,141.63 C429.133,122.88 437.133,133.13 437.133,133.13 C437.133,133.13 445.883,142.63 435.883,156.88 C425.883,171.13 411.383,170.13 411.383,170.13 Z M332.633,183.63 C320.883,214.38 292.383,201.88 292.383,201.88 C292.383,201.88 289.133,190.88 298.383,160.13 C307.633,129.38 329.383,141.38 329.383,141.38 C329.383,141.38 344.383,152.88 332.633,183.63 Z M311.383,54.88 C311.383,54.88 329.133,8.63 333.383,31.13 C337.633,53.63 296.133,120.63 296.133,120.63 C296.633,105.63 311.383,54.88 311.383,54.88 Z M57.632,170.13 C58.382,140.38 77.882,127.38 84.632,133.88 C91.382,140.38 88.882,154.38 76.132,163.13 C63.382,171.88 57.632,170.13 57.632,170.13 Z M595.383,165.193 C594.383,155.193 585.383,158.911 585.383,158.911 C585.383,158.911 570.883,170.148 558.133,168.897 C545.383,167.646 549.383,139.138 549.383,139.138 C549.383,139.138 552.133,113.014 544.633,110.824 C537.133,108.634 527.883,117.632 527.883,117.632 C527.883,117.632 516.383,130.381 510.883,146.631 L509.383,147.131 C509.383,147.131 511.133,118.63 509.133,112.13 C507.633,108.88 493.883,109.13 491.633,114.88 C489.383,120.63 478.383,160.63 477.633,177.38 C477.633,177.38 456.133,195.63 437.383,198.63 C418.633,201.63 414.133,189.88 414.133,189.88 C414.133,189.88 465.133,175.63 463.383,134.88 C461.633,94.13 422.258,109.197 417.799,112.547 C413.489,115.786 390.474,129.67 383.761,168.108 C383.532,169.419 383.133,175.13 383.133,175.13 C383.133,175.13 363.383,188.38 352.383,191.88 C352.383,191.88 383.133,140.13 345.633,116.63 C328.633,106.38 315.133,127.88 315.133,127.88 C315.133,127.88 365.883,71.38 354.633,23.63 C349.275,0.892 337.909,-1.552 327.471,2.128 C311.633,8.38 305.633,17.63 305.633,17.63 C305.633,17.63 285.133,47.38 280.383,91.63 C275.633,135.88 268.633,189.38 268.633,189.38 C268.633,189.38 258.883,198.88 249.883,199.38 C240.883,199.88 244.883,172.63 244.883,172.63 C244.883,172.63 251.883,131.13 251.383,124.13 C250.883,117.13 250.383,113.38 242.133,110.88 C233.883,108.38 224.883,118.88 224.883,118.88 C224.883,118.88 201.133,154.88 199.133,160.38 L197.883,162.63 L196.633,161.13 C196.633,161.13 213.383,112.13 197.383,111.38 C181.383,110.63 170.883,128.88 170.883,128.88 C170.883,128.88 152.633,159.38 151.883,162.88 L150.633,161.38 C150.633,161.38 158.133,125.88 156.633,117.13 C155.133,108.38 146.883,110.13 146.883,110.13 C146.883,110.13 136.383,108.88 133.633,115.63 C130.883,122.38 120.883,167.13 119.633,181.38 C119.633,181.38 93.382,200.13 76.132,200.38 C58.882,200.63 60.632,189.442 60.632,189.442 C60.632,189.442 123.883,167.786 106.633,125.036 C98.882,114.036 89.882,110.583 77.132,110.833 C64.382,111.083 48.933,118.857 38.683,141.857 C33.791,152.834 32.382,163.238 31.382,171.122 L31.382,171.119 C31.382,171.119 19.933,173.38 13.933,168.38 C7.933,163.38 4.658,168.38 4.658,168.38 C4.658,168.38 -5.73,181.317 4.52,185.317 C14.77,189.317 30.675,191 30.675,191 L30.664,191 C32.133,198 36.409,210.077 48.888,219.561 C67.638,233.811 103.635,218.346 103.635,218.346 L118.384,210.113 C118.384,210.113 118.883,223.67 129.633,225.645 C140.383,227.621 144.883,225.626 163.633,180.126 C174.633,156.876 175.383,158.128 175.383,158.128 L176.633,157.879 C176.633,157.879 168.133,202.38 171.383,214.38 C174.633,226.38 188.883,225.129 188.883,225.129 C188.883,225.129 196.633,226.44 202.883,204.44 C209.133,182.44 221.133,158 221.133,158 L222.633,158 C222.633,158 217.383,203.69 225.383,218.19 C233.383,232.69 254.133,223.16 254.133,223.16 C254.133,223.16 268.633,215.895 270.883,213.645 C270.883,213.645 288.097,228.311 312.368,225.661 C366.633,214.981 385.933,200.57 385.933,200.57 C385.933,200.57 395.258,224.194 424.133,226.382 C457.133,228.882 475.133,208.131 475.133,208.131 C475.133,208.131 474.883,221.631 486.383,226.381 C497.883,231.131 505.633,204.252 505.633,204.252 L524.883,151 L526.633,151 C526.633,151 527.633,185.69 546.633,191.19 C565.633,196.69 590.383,178.41 590.383,178.41 C590.383,178.41 596.383,175.193 595.383,165.193 L595.383,165.193 Z" id="Fill-4"></path>
                <text id="®" font-family="MyriadPro-Regular, Myriad Pro" font-size="40" font-weight="normal">
                    <tspan x="505.5" y="229.375919">®</tspan>
                </text>
            </g>
        </g>
    </g>
</svg>